<?xml version="1.0" encoding="UTF-8" standalone="no"?>
<svg
   version="1.1"
   width="11.6929in"
   height="8.2677in"
   viewBox="0 0 841.8898 595.2756"
   id="svg44"
   sodipodi:docname="National Payments Corporation of India (NPCI).cdr"
   xmlns:inkscape="http://www.inkscape.org/namespaces/inkscape"
   xmlns:sodipodi="http://sodipodi.sourceforge.net/DTD/sodipodi-0.dtd"
   xmlns="http://www.w3.org/2000/svg"
   xmlns:svg="http://www.w3.org/2000/svg">
  <defs
     id="defs44" />
  <sodipodi:namedview
     id="namedview44"
     pagecolor="#ffffff"
     bordercolor="#000000"
     borderopacity="0.25"
     inkscape:showpageshadow="2"
     inkscape:pageopacity="0.0"
     inkscape:pagecheckerboard="0"
     inkscape:deskcolor="#d1d1d1"
     inkscape:document-units="in" />
  <path
     d="  M630.9651,318.2552 C629.9175,322.2492 627.6125,325.6146 624.0378,328.3384 C620.4758,331.0756 616.9010,332.5419 612.9197,332.5419 L470.4571,332.5419 C466.4763,332.5419 463.5298,331.0750 461.6441,328.3384 C459.5490,325.6146 459.1296,322.2492 460.3871,318.2552 L492.0645,203.8293 C493.1121,199.8352 495.4298,196.4832 498.7824,193.7460 C502.3444,190.8128 506.1286,189.5425 510.1099,189.5425 L652.3625,189.5425 C656.5660,189.5425 659.4993,190.8128 661.5949,193.5366 C663.4800,196.2732 663.8994,199.8352 662.6419,203.8293 L658.8705,217.4745 L516.6179,217.4745 L492.4833,304.4005 L634.9459,304.4005 L630.9651,318.2552 Z"
     style="fill-rule: evenodd; fill: #183181; "
     id="path1" />
  <path
     d="  M675.6590,332.5419 L647.1242,332.5419 L686.7765,189.7519 L715.1013,189.7519 L675.6590,332.5419 Z"
     style="fill-rule: evenodd; fill: #183181; "
     id="path2" />
  <path
     d="  M285.3963,189.3331 L257.0715,189.3331 L231.0640,282.9898 L116.9267,189.5425 L77.2745,332.7513 L105.8086,332.7513 L131.3968,239.7362 L245.5347,333.1707 L285.3963,189.3331 Z"
     style="fill-rule: evenodd; fill: #183181; "
     id="path3" />
  <path
     d="  M470.6665,193.5366 C468.7808,190.8128 465.8342,189.5425 461.6441,189.5425 L305.5495,189.5425 L297.7840,217.4745 L439.8278,217.4745 L431.4336,247.2923 L289.5998,247.2923 L265.8846,332.5419 L294.2093,332.5419 L310.1591,275.2110 L437.9421,275.2110 C441.9229,275.2110 445.6943,273.9540 449.2696,271.2302 C452.6222,268.4930 454.9267,265.1410 456.1837,261.1469 L471.9240,203.8293 C473.1809,199.8352 472.7622,196.2732 470.6665,193.5366 Z"
     style="fill-rule: evenodd; fill: #183181; "
     id="path4" />
  <path
     d="  M768.8048,189.5425 L804.8951,261.1469 L729.3620,332.7513 L768.8048,189.5425 Z"
     style="fill-rule: evenodd; fill: #008b43; "
     id="path5" />
  <path
     d="  M743.6360,189.5425 L779.7262,261.1469 L703.9837,332.7513 L743.6360,189.5425 Z"
     style="fill-rule: evenodd; fill: #f47921; "
     id="path6" />
  <path
     d="  M699.3609,349.5525 C700.8278,348.7010 702.0847,348.2823 703.5644,348.2823 C704.8213,348.2823 706.2882,348.7010 707.5452,349.3431 C708.3833,349.5525 709.0121,349.9719 709.8496,350.3907 C711.5260,351.4382 713.0056,352.6951 714.2625,354.3714 L714.4731,354.7908 C714.8919,355.0135 715.1018,355.4323 715.3112,355.6423 L697.0564,355.6417 C696.8470,355.6417 696.8470,355.4323 696.8470,355.2229 C696.8470,355.2229 696.8470,355.0135 696.8470,355.0135 C696.6376,354.3720 696.6376,353.5339 696.8470,352.9051 C697.2658,351.6476 698.1040,350.3907 699.3609,349.5525 Z Z M770.9132,357.9467 L769.0142,365.2929 L759.7824,365.2929 L761.6808,357.9467 L770.9132,357.9467 Z Z M719.2920,355.6417 C718.8726,355.0135 718.2445,354.1620 717.6157,353.3239 C715.7300,351.2288 714.0537,349.7619 712.3647,348.7016 C710.8978,347.6535 709.6408,347.2347 708.3833,346.6060 C707.1264,346.1872 705.6600,345.9778 704.1931,345.9778 C701.6660,345.9778 699.3609,346.6065 697.4752,347.6541 C695.5895,348.7016 694.3326,350.3912 693.6905,352.4863 C693.4811,353.3245 693.4811,354.1626 693.6905,355.0135 L693.6905,355.0135 C693.6905,355.2229 693.8999,355.4323 693.8999,355.6423 L689.0815,355.6417 L688.4528,357.9462 L693.2717,357.9467 L687.6146,378.5193 L690.9672,378.5193 L696.6371,357.9467 L718.6633,357.9467 L717.1963,363.1978 L703.7738,363.1978 C703.3417,363.1978 702.9223,363.4072 702.2941,363.6166 C701.6654,363.6166 701.2466,364.2453 701.0372,364.8735 C701.0372,365.2923 701.0372,365.9210 702.5041,367.8200 L702.7135,368.0294 C703.9837,369.4963 704.8219,370.1245 705.4507,370.1245 C706.4982,370.1245 706.9176,369.7057 707.1270,369.4958 L707.9651,365.5017 L716.7776,365.5022 L713.2156,378.5188 L716.5682,378.5193 L722.0159,357.9467 L733.9848,357.9467 L732.0991,364.6647 L729.1526,364.6647 C728.9432,364.6647 728.7338,364.6647 728.5238,364.6647 C727.8951,364.8741 727.4763,365.0835 727.2669,365.5028 C727.0575,366.5504 727.4763,367.6112 728.9432,368.8682 C730.2001,370.3351 731.2477,370.9632 732.3085,370.9632 C732.9373,370.9632 733.5655,370.7539 733.9848,369.9157 C733.9848,369.7063 734.1942,369.4969 734.1942,369.0775 L737.1275,357.9467 L745.1023,357.9467 L739.6419,378.5193 L743.0072,378.5193 L748.4549,357.9467 L758.3155,357.9467 L756.4298,365.2929 L754.1247,365.2929 C753.9154,365.2929 753.4960,365.2929 753.0772,365.5022 C752.6584,365.5022 752.2391,365.9210 752.0297,366.5498 C751.8203,367.1785 752.4484,368.2388 753.7060,369.7057 C754.9629,370.9627 756.0104,371.8008 756.6392,371.8008 C757.4774,371.8008 757.8961,371.5914 758.1061,371.1721 C758.3155,370.9632 758.3155,370.7539 758.3155,370.5439 L759.1537,367.6106 L768.1761,367.6106 L765.2428,378.5188 L768.5954,378.5193 L774.2652,357.9467 L778.6654,357.9467 L779.0842,355.6423 L719.2920,355.6417 Z"
     style="fill-rule: evenodd; fill: #3e3e3f; "
     id="path7" />
  <path
     d="  M568.4352,357.9467 L574.7343,357.9467 L572.6387,365.9216 L564.6638,365.9216 L566.3401,359.4131 C566.7589,358.1561 566.3401,357.1086 565.5019,356.2704 C564.6638,355.6417 563.4069,355.2229 561.9400,355.2229 C560.4603,355.2229 558.9934,355.4323 557.7365,356.2704 C556.6889,356.8992 555.8508,357.9467 555.4320,359.4131 C555.2226,359.6225 555.4320,360.2512 555.4320,360.8800 L555.4320,361.1027 C555.6414,361.3121 555.6414,361.5215 555.6414,361.7314 L555.8508,361.9408 L558.9940,361.9408 L558.5746,361.5215 C558.5746,361.3121 558.5746,361.3121 558.3652,361.1027 C558.3652,360.4612 558.3652,360.0418 558.3652,359.4136 C558.5746,358.7849 558.9940,358.3661 559.4128,357.9467 C560.0415,357.5280 560.4603,357.3180 561.3118,357.3180 C562.1499,357.3180 562.7787,357.5274 562.9881,357.7368 C563.1975,358.1561 563.1975,358.5749 563.1975,358.9943 L561.3118,365.9216 L558.1558,365.9216 C557.9464,365.9216 557.5271,365.9216 557.1083,366.1310 C556.6895,366.5498 556.4795,366.7598 556.2701,367.1785 C556.2701,367.6106 556.2701,368.2394 558.3652,370.3345 C560.2509,372.4296 561.1024,372.8489 561.5212,372.8489 C561.9400,372.8489 562.5687,372.6395 562.7781,372.2202 C562.9875,372.0108 562.9875,371.5914 563.1969,371.3820 L563.8256,368.4488 L572.0105,368.4488 L569.2733,378.1000 C568.2258,378.1000 567.3876,378.5188 566.3401,378.9381 C565.9213,379.1475 565.2926,379.5796 564.4544,379.9990 L564.2450,380.2084 L566.3401,382.3034 L566.5495,382.0941 C566.9683,381.6753 567.3876,381.2559 567.5970,381.2559 C568.4352,380.6271 569.2733,380.4178 570.1115,380.4178 C570.9629,380.4178 571.5911,380.6271 572.0105,381.0465 C572.4293,381.4653 572.6392,382.0941 572.4293,382.7228 C572.2199,383.7704 571.3817,384.6085 570.3209,385.2373 C569.0639,385.8788 567.8064,386.0887 566.5495,386.0887 C564.2450,386.0881 562.1499,385.4467 560.4603,383.9798 C559.8321,383.3510 559.2034,382.7228 558.5746,381.6753 L558.3652,381.4659 L555.6414,383.7704 L555.8508,383.9798 C556.8983,385.0273 557.7365,385.6688 558.5746,386.2975 C560.8791,387.7644 563.4069,388.3926 566.3401,388.3926 C568.6446,388.3926 570.7530,387.9738 572.4293,386.9257 C574.3150,385.8788 575.3625,384.6085 575.7819,382.9322 C576.2007,381.4653 575.7819,380.4178 574.9437,379.3569 C574.3150,378.7287 573.4768,378.3094 572.6387,378.1000 L578.0864,357.9467 L590.0553,357.9467 L588.1563,364.6647 L585.2237,364.6641 L568.2258,364.6641 C568.0164,364.6641 568.0164,364.6641 568.0164,364.6641 C567.3876,364.6641 566.7595,364.8735 566.5495,365.5022 C566.3401,366.5498 566.9683,367.6106 568.2258,368.8676 C569.4827,370.3345 570.7402,370.9627 571.5784,370.9627 C572.4166,370.9627 572.8486,370.7533 573.2674,369.9151 C573.4768,369.7057 573.4768,369.4963 573.4768,369.0770 L593.1985,357.9467 L601.1734,357.9467 L595.7124,378.5193 L599.0783,378.5193 L604.5254,357.9467 L627.1804,357.9467 L625.9235,362.3596 L615.0148,362.3596 C613.3385,362.3596 612.0815,362.7784 610.8246,363.6166 C609.5671,364.2453 608.9389,365.5022 608.5195,366.9692 C607.8780,369.2869 608.5195,372.0108 610.6146,374.7479 C611.4528,375.7955 612.5003,376.8430 613.9672,378.1005 L613.9672,378.3099 L616.6911,376.4242 L616.4817,376.2148 C615.2247,375.1667 614.1766,374.1192 613.5484,373.2677 C611.6627,370.9632 611.2434,368.8682 611.6627,366.7598 C611.8721,366.1310 612.2915,365.5028 612.9197,365.0835 C613.5484,364.6647 614.5960,364.6647 615.8529,364.6647 L625.2947,364.6641 L621.7327,378.5188 L624.8753,378.5193 L630.5457,357.9467 L638.5206,357.9467 L632.8508,378.5193 L636.2028,378.5193 L641.6638,357.9467 L663.8994,357.9467 L662.4325,363.1978 L649.0099,363.1978 C648.5911,363.1978 647.9624,363.4072 647.5430,363.6166 C646.9143,363.6166 646.4955,364.2453 646.2728,364.8735 C646.2728,365.2923 646.2728,365.9210 647.9618,368.0294 C649.2187,369.4963 650.0569,370.1245 650.6857,370.1245 C651.3144,370.1245 651.9426,369.9151 652.1526,369.4958 L653.2001,365.5017 L661.8043,365.5022 L658.4517,378.5188 L661.5943,378.5193 L667.2647,357.9467 L671.6649,357.9467 L672.2936,355.6423 L569.0639,355.6417 L568.4352,357.9467 Z"
     style="fill-rule: evenodd; fill: #3e3e3f; "
     id="path8" />
  <path
     d="  M489.9688,357.9467 L488.9213,362.3596 L481.7846,362.3596 C480.1083,362.3596 478.6419,362.5690 477.1750,363.4072 C476.9656,363.6166 476.7562,363.6166 476.3369,363.8259 C475.7081,364.4547 475.0666,364.8735 474.6479,365.5022 L468.1526,357.9467 L489.9688,357.9467 Z Z M473.3903,367.8200 C473.3903,367.8200 473.3903,367.8200 473.3903,367.8200 L473.1809,368.0294 C473.1809,368.2388 473.1809,368.4482 473.1809,368.6582 C472.9715,368.8676 472.5522,368.8676 472.3428,369.0770 C471.0859,369.4958 469.8283,369.7057 468.7808,369.7057 L468.5714,369.7063 C467.3145,369.7063 466.2669,369.4969 465.6249,368.8682 C464.9961,368.2394 464.7867,367.4012 464.9961,366.3410 L466.6857,360.2512 L473.3903,367.8200 Z Z M494.5784,349.5525 C495.2199,348.9237 496.2680,348.7010 497.3155,348.7010 C498.1537,348.7010 498.9918,348.9237 499.6200,349.1331 C501.0869,349.5519 501.9245,350.6000 502.7627,352.2758 C503.1814,353.1139 503.3914,354.1615 503.6008,355.6411 L493.3214,355.6417 C493.3214,355.4323 493.1121,355.2229 493.1121,355.0129 L493.1121,354.7902 C492.6933,353.9521 492.6933,352.9045 492.9027,352.0664 C493.3214,351.0188 493.7408,350.1807 494.5790,349.5519 L494.5784,349.5525 Z Z M521.6462,359.2037 C521.6462,358.7849 521.4368,358.5749 521.2274,357.9467 L529.6211,357.9467 L526.8972,368.4494 C526.0591,369.2875 525.4303,369.7063 525.0115,370.1257 C523.1125,371.1732 521.4368,371.5926 519.5511,371.5926 L519.5511,371.5926 C517.2466,371.5926 515.7797,370.9638 514.9416,369.7069 C514.7322,369.2881 514.5228,368.6593 514.5228,367.8212 C515.7797,367.4024 516.8273,367.1797 517.6654,366.9697 C519.9699,365.9222 521.4368,364.4553 522.0656,362.3602 C522.2750,361.3126 522.0656,360.2518 521.6468,359.2043 L521.6462,359.2037 Z Z M505.4998,351.2288 C504.4523,348.9243 502.7627,347.2347 500.2488,346.8159 C499.6200,346.6065 498.7819,346.3971 497.7343,346.3971 C495.8486,346.3971 494.1590,347.0259 492.6927,347.8640 C491.2258,348.7022 490.3882,349.9724 489.7594,351.8581 C489.5501,352.6963 489.7594,353.7438 489.9688,354.7914 C490.1782,355.2235 490.1782,355.4329 490.3876,355.6428 L428.2910,355.6417 L427.6495,357.9462 L441.0848,357.9467 L439.8278,363.1978 C439.6184,363.8265 439.1991,364.4547 438.3609,365.0835 C437.7194,365.5022 436.6719,365.7122 435.6244,365.7122 C434.9956,365.7122 434.3674,365.7122 433.9481,365.5028 C433.3193,365.0840 433.1099,364.8741 433.1099,364.8741 L431.6430,361.5215 L428.7098,363.1978 L428.9192,363.4072 C429.1285,364.0359 429.3379,364.8741 429.5479,365.2929 C430.3861,366.7598 431.2242,368.4488 432.2718,370.3345 C433.1099,371.5914 433.9481,373.0583 435.2050,374.7474 C436.0431,376.0043 437.0907,377.0518 438.1515,378.5188 L438.3609,378.7281 L441.2942,376.8425 L441.0848,376.6331 C440.6660,376.2143 440.4560,375.7949 440.0372,375.5855 C439.8278,375.3761 439.6184,375.1667 439.4085,374.9568 C438.9897,374.3280 438.5703,373.6998 438.1515,373.2677 C437.7194,372.6390 437.3001,372.2202 436.8813,371.5914 L434.7862,367.8200 C436.0431,368.0294 437.5101,367.8200 439.1991,367.1785 C440.2466,366.7598 441.2942,366.3404 441.9229,365.7116 C442.3417,364.8735 442.7611,364.2447 442.9705,363.4072 L444.4374,357.9467 L453.2504,357.9467 L447.5933,378.5193 L450.9453,378.5193 L456.3930,357.9467 L463.9491,357.9467 L461.6446,366.1310 C461.2259,367.8200 461.6446,369.2869 463.1116,370.3345 C464.3685,371.5914 466.0448,372.0108 468.1532,372.0108 C468.9913,372.0108 470.0389,372.0108 471.0864,371.5920 C471.7152,371.3826 472.3434,371.1732 473.1815,370.9632 C473.1815,372.0108 473.8103,373.0583 474.4385,373.9098 C474.6479,374.1192 474.8572,374.3286 475.0672,374.5385 L475.0672,374.5385 C476.3375,375.7955 477.8038,376.6336 479.6901,377.0530 L468.3620,384.6085 L473.3903,384.6085 L481.5746,378.1000 L486.1974,384.6085 L489.9688,384.6085 L484.2984,377.2618 C485.7781,377.0524 487.0350,376.8430 488.2925,376.2143 C489.9688,375.5855 491.4352,374.5380 492.9021,373.2677 L493.3209,373.0583 L490.8064,371.5914 L490.5970,371.8008 C488.5019,373.9092 485.9875,374.9568 482.8315,374.9568 C480.5271,374.9568 478.8508,374.1186 477.5932,372.8484 C476.5457,371.8008 476.1263,370.5439 476.1263,369.0770 C476.3357,368.8676 476.3357,368.6582 476.3357,368.2388 C476.3357,368.0294 476.5451,367.8200 476.5451,367.8200 C476.9639,366.9686 477.5927,366.3404 478.4308,365.7116 C479.4784,365.0829 480.5259,364.6641 481.7834,364.6641 L491.4358,364.6641 L493.3214,357.9462 L503.1820,357.9467 L497.5249,378.5193 L500.8775,378.5193 L506.3385,357.9467 L517.4560,357.9467 C517.8748,358.5755 518.0848,358.9943 518.2942,359.2037 C518.7130,360.2512 518.9229,361.3121 518.7130,362.1502 C518.2942,363.1978 517.6654,364.2453 516.6179,364.8741 C515.7797,365.2929 514.5228,365.5028 513.2526,365.5028 C513.0432,365.5028 512.8338,365.5028 512.6238,365.5028 C512.4144,365.5028 512.2050,365.2934 511.9950,365.2934 C511.9950,365.2934 511.7856,365.2934 511.5763,365.2934 L511.3669,365.2929 L511.3669,365.5022 C510.7381,367.6106 511.1575,369.4963 512.4144,371.1726 C513.6846,372.8489 515.9897,373.9098 519.1323,373.9098 L519.1323,373.9098 C521.0180,373.9098 522.6943,373.4910 524.5928,372.8489 C524.8022,372.6395 525.4309,372.4302 525.8497,372.2202 L524.1734,378.5188 L527.5260,378.5193 L532.9870,357.9467 L537.3866,357.9467 L538.0153,355.6423 L506.5473,355.6417 C506.3380,353.7427 506.1286,352.2763 505.4998,351.2288 Z"
     style="fill-rule: evenodd; fill: #3e3e3f; "
     id="path9" />
  <path
     d="  M367.8567,349.5525 C368.4855,348.9237 369.3236,348.7010 370.5806,348.7010 C371.4320,348.7010 372.2702,348.9237 372.8984,349.1331 C374.1553,349.5519 375.2028,350.6000 376.0410,352.2758 C376.2504,352.9045 376.6698,354.1615 376.8792,355.6411 L366.5992,355.6417 C366.5992,355.4323 366.3898,355.2229 366.3898,354.7902 C365.9710,353.9521 365.9710,352.9045 366.1804,352.0664 C366.5992,351.0188 367.0186,350.1807 367.8567,349.5519 L367.8567,349.5525 Z Z M394.9240,359.2037 C394.9240,358.7849 394.7146,358.5749 394.5052,357.9467 L402.8994,357.9467 L400.1756,368.4494 C399.3241,369.2875 398.6960,369.7063 398.0672,370.1257 C396.3909,371.1732 394.7146,371.5926 392.8289,371.5926 L392.6195,371.5920 C390.5244,371.5920 389.0448,370.9632 388.2066,369.7063 C387.9972,369.0775 387.7878,368.4494 387.7878,367.8206 C389.0448,367.4018 390.0923,367.1791 390.9438,366.9692 C393.2483,365.9216 394.7152,364.4547 395.3439,362.3596 C395.5533,361.3121 395.3439,360.2512 394.9251,359.2037 L394.9240,359.2037 Z Z M378.7648,351.2288 C377.7173,348.9243 375.8316,347.2347 373.5265,346.8159 C372.8978,346.6065 372.0596,346.3971 370.9994,346.3971 C369.1137,346.3971 367.2280,347.0259 365.9710,347.8640 C364.5041,348.7022 363.4566,350.1818 363.0378,351.8581 C362.8284,352.6963 362.8284,353.7438 363.2472,354.7914 C363.2472,355.2235 363.4566,355.4329 363.4566,355.6428 L301.5554,355.6417 L300.9267,357.9462 L307.0164,357.9467 L304.9213,365.9216 L296.9459,365.9216 L298.6222,359.4131 C299.0410,358.1561 298.8316,357.1086 297.7840,356.2704 C297.1553,355.6417 295.8983,355.2229 294.2093,355.2229 C292.7424,355.2229 291.4855,355.4323 290.2285,356.2704 C288.9716,356.8992 288.1334,357.9467 287.9241,359.4131 C287.7147,359.8319 287.7147,360.2512 287.9241,360.8800 C287.9241,361.1027 287.9241,361.5215 288.1334,361.7314 L288.1334,361.9408 L291.2761,361.9408 L291.0667,361.5220 C290.8573,361.3126 290.8573,361.3126 290.8573,361.1033 C290.6479,360.6712 290.6479,360.0424 290.8573,359.4142 C291.0667,358.7855 291.2761,358.3667 291.9048,357.9473 C292.3236,357.5285 292.9524,357.3186 293.5811,357.3186 C294.4193,357.3186 295.0481,357.5280 295.2574,357.7373 C295.6895,358.1561 295.6895,358.5755 295.4801,358.9943 L293.5811,365.9216 L290.6473,365.9216 C290.2285,365.9216 290.0186,365.9216 289.5998,366.1310 C289.1810,366.5498 288.7616,366.7598 288.7616,367.1785 C288.5522,367.4012 288.5522,368.0300 290.6473,370.3345 C292.5330,372.4296 293.3712,372.8489 293.7900,372.8489 C294.2087,372.8489 294.8375,372.6395 295.2569,372.2202 C295.2569,372.0108 295.4796,371.5914 295.4796,371.3820 L296.3177,368.4488 L304.2793,368.4488 L301.5554,378.5188 L304.9208,378.5193 L310.3685,357.9467 L318.3433,357.9467 L312.8829,378.5193 L316.0389,378.5193 L321.6959,357.9467 L338.2744,357.9467 L337.0175,363.1978 C336.8081,364.0359 336.3888,364.4547 335.5506,365.0835 C334.9218,365.5022 334.0837,365.7122 332.8134,365.7122 C332.1847,365.7122 331.7659,365.7122 331.1371,365.5028 C330.5084,365.0840 330.2990,364.8741 330.2990,364.8741 L328.8321,361.5215 L325.8988,363.1978 L326.1082,363.4072 C326.3176,364.0359 326.5270,364.6641 326.9464,365.2929 C327.5751,366.7598 328.4133,368.4488 329.4608,370.3345 C330.0896,371.5914 331.1371,372.8489 332.3941,374.7474 C333.4549,376.2143 334.5025,377.2618 335.3406,378.5188 L335.5500,378.7281 L338.4833,376.8425 L338.0651,376.4237 C337.4363,375.7949 337.0175,375.1667 336.8081,374.9568 L336.1794,374.3286 C335.3412,373.2677 334.7124,372.4296 334.2937,371.5914 L331.9759,367.8200 C333.2328,368.0294 334.7130,367.8200 336.3888,367.1785 C337.4363,366.7598 338.4838,366.3404 339.1126,365.7116 C339.7414,364.8735 340.1601,364.2447 340.1601,363.4072 L341.8364,357.9467 L365.1329,357.9467 L363.8759,362.3596 L352.9673,362.3596 C351.2782,362.3596 349.8113,362.7784 348.7638,363.6166 C347.5068,364.4547 346.6687,365.5022 346.4593,366.9692 C345.6211,369.2869 346.4593,372.0108 348.5544,374.7479 C349.1831,375.7955 350.4401,376.8430 351.6970,378.1005 L351.9064,378.3099 L354.6436,376.4242 L354.2248,376.2148 C352.9678,375.1673 352.1164,374.1198 351.4876,373.2683 C349.6019,370.9638 349.1831,368.8682 349.6019,366.7598 C349.8113,366.1310 350.2307,365.5028 350.8589,365.0835 C351.4876,364.6647 352.5479,364.6647 353.8054,364.6647 L363.2472,364.6641 L359.4625,378.5193 L362.8278,378.5193 L368.4849,357.9467 L376.2504,357.9467 L370.7900,378.5193 L374.1553,378.5193 L379.6030,357.9467 L390.5244,357.9467 C391.1532,358.5755 391.3626,358.9943 391.5720,359.2037 C391.9907,360.2512 392.2007,361.1027 391.9907,362.1502 C391.5720,363.1978 390.9432,364.2453 389.8824,364.8741 C389.0442,365.2929 387.7873,365.5028 386.5297,365.5028 C386.3204,365.5028 386.1110,365.5028 385.6916,365.5028 C385.6916,365.5028 385.4822,365.5028 385.2728,365.2934 C385.2728,365.2934 385.0634,365.2934 384.8540,365.2934 L384.6446,365.2929 L384.6446,365.5022 C384.0159,367.6106 384.4352,369.4963 385.6922,371.1726 C386.9491,372.8489 389.2542,373.9098 392.2007,373.9098 L392.4101,373.9098 C394.2958,373.7004 395.9721,373.4910 397.6484,372.8489 C398.0672,372.6395 398.6960,372.4302 399.1153,372.2202 L397.4390,378.5188 L400.8038,378.5193 L406.2515,357.9467 L410.6643,357.9467 L411.2931,355.6423 L379.8124,355.6417 C379.6030,353.7427 379.1836,352.2763 378.7648,351.2288 Z"
     style="fill-rule: evenodd; fill: #3e3e3f; "
     id="path10" />
  <path
     d="  M52.9305,418.8391 L59.6484,394.6918 L70.3472,408.9652 C70.7659,409.3840 70.9759,409.8034 71.3947,410.2355 C71.6041,410.6542 71.8135,411.2830 72.2328,411.7024 L76.6330,395.7393 L80.2077,395.7393 L73.4898,419.6772 L62.3723,405.4032 C62.1629,404.9844 61.9529,404.5657 61.5341,404.1463 C61.3247,403.7142 61.1148,403.2954 60.9054,402.6667 L56.4925,418.8391 L52.9305,418.8391 Z"
     style="fill-rule: evenodd; fill: #3e3e3f; "
     id="path11" />
  <path
     d="  M87.1350,409.8034 L93.6303,409.8034 L92.5827,404.5651 C92.5827,404.1463 92.5827,403.7136 92.5827,403.2948 C92.5827,402.8760 92.5827,402.4567 92.5827,401.8279 C92.1640,402.4567 91.9540,402.8755 91.7446,403.2948 C91.3258,403.7142 91.1158,404.1463 90.9064,404.5657 L87.1350,409.8034 Z Z M94.8872,418.8391 L94.0491,412.9593 L84.8173,412.9593 L80.4171,418.8391 L76.4230,418.8391 L94.4684,394.6918 L98.8813,418.8391 L94.8872,418.8391 Z"
     style="fill-rule: evenodd; fill: #3e3e3f; "
     id="path12" />
  <path
     d="  M110.4182,398.8953 L104.9578,418.8391 L101.1864,418.8391 L106.6468,398.8953 L100.5576,398.8953 L101.3958,395.7393 L117.5549,395.7393 L116.5074,398.8953 L110.4182,398.8953 Z"
     style="fill-rule: evenodd; fill: #3e3e3f; "
     id="path13" />
  <path
     d="  M114.6089,418.8391 L121.1169,395.7393 L124.9016,395.7393 L118.3931,418.8391 L114.6089,418.8391 Z"
     style="fill-rule: evenodd; fill: #3e3e3f; "
     id="path14" />
  <path
     d="  M145.4609,407.2889 C145.8797,406.2414 145.8797,404.9844 145.8797,403.9363 C145.6703,402.8755 145.2509,402.0373 144.8321,401.1992 C144.2034,400.3610 143.5619,399.7323 142.5143,399.3135 C141.6762,398.8947 140.6287,398.6847 139.5811,398.6847 C138.3242,398.6847 137.2766,398.8941 136.0191,399.3135 C134.9716,399.7323 133.9107,400.3610 132.8632,401.1992 C131.8156,402.0373 130.9775,402.8755 130.1393,403.9363 C129.5106,404.9839 128.8824,406.2408 128.6724,407.2889 C128.2536,408.5459 128.2536,409.5934 128.2536,410.6542 C128.4630,411.7018 128.8824,412.5399 129.3012,413.3781 C129.9299,414.2162 130.7681,414.8450 131.6057,415.2638 C132.4438,415.6826 133.4914,415.8926 134.7616,415.8926 C135.8091,415.8926 136.8567,415.6832 138.1142,415.2638 C139.1617,414.8450 140.2093,414.2162 141.2568,413.3781 C142.3044,412.5399 143.3519,411.7018 143.9940,410.6542 C144.6227,409.5940 145.2515,408.5464 145.4609,407.2889 Z Z M149.4423,407.2889 C149.0229,408.9652 148.1847,410.4449 147.3466,411.9118 C146.2990,413.3787 145.0421,414.8450 143.3525,415.8926 C141.8862,417.1628 140.4193,418.0009 138.7430,418.6297 C137.0672,419.2585 135.3909,419.4679 133.7013,419.4679 C132.0250,419.4679 130.5587,419.2585 129.0918,418.6297 C127.8348,418.0009 126.7873,417.1628 125.9491,415.8926 C125.1110,414.8450 124.4695,413.3781 124.2601,412.1212 C124.0507,410.6542 124.2601,408.9652 124.6922,407.2889 C125.1110,405.6126 125.9491,404.1463 126.9967,402.6661 C127.8348,401.1992 129.0918,399.9422 130.7681,398.6853 C132.2350,397.6244 133.7013,396.5769 135.3909,396.1581 C137.0672,395.5293 138.7435,395.1106 140.4193,395.1106 C142.0956,395.1106 143.5619,395.5293 145.0421,396.1581 C146.2990,396.5769 147.3466,397.6250 148.1847,398.6853 C149.0229,399.9422 149.6516,401.1997 149.8610,402.6661 C150.0704,404.1457 149.8610,405.6126 149.4423,407.2889 Z"
     style="fill-rule: evenodd; fill: #3e3e3f; "
     id="path15" />
  <path
     d="  M149.8610,418.8391 L156.5790,394.6918 L167.4871,408.9652 C167.6965,409.3840 167.9059,409.8034 168.3252,410.2355 C168.5346,410.6542 168.9540,411.2830 169.1634,411.7024 L173.5763,395.7393 L177.1383,395.7393 L170.4203,419.6772 L159.3028,405.4032 C159.0929,404.9844 158.8835,404.5657 158.4647,404.1463 C158.2553,403.7142 158.0453,403.2954 157.8359,402.6667 L153.4358,418.8391 L149.8610,418.8391 Z"
     style="fill-rule: evenodd; fill: #3e3e3f; "
     id="path16" />
  <path
     d="  M184.0656,409.8034 L190.5608,409.8034 L189.5133,404.5651 C189.5133,404.1463 189.5133,403.7136 189.5133,403.2948 C189.5133,402.8760 189.5133,402.4567 189.5133,401.8279 C189.0945,402.4567 188.8845,402.8755 188.6751,403.2948 C188.4657,403.7142 188.0464,404.1463 187.8370,404.5657 L184.0656,409.8034 Z Z M191.8311,418.8391 L190.9796,412.9593 L181.7611,412.9593 L177.3477,418.8391 L173.5763,418.8391 L191.4123,394.6918 L195.8119,418.8391 L191.8311,418.8391 Z"
     style="fill-rule: evenodd; fill: #3e3e3f; "
     id="path17" />
  <path
     d="  M198.7451,418.8391 L205.2536,395.7393 L209.0250,395.7393 L203.3680,415.4738 L211.9716,415.4738 L210.9240,418.8391 L198.7451,418.8391 Z"
     style="fill-rule: evenodd; fill: #3e3e3f; "
     id="path18" />
  <path
     d="  M231.9021,405.4032 L232.9497,405.4032 C235.0453,405.4032 236.5117,405.1938 237.3498,404.7750 C237.9786,404.3557 238.6201,403.5048 239.0394,402.2473 C239.2488,400.9903 239.2488,400.1522 238.6201,399.7334 C237.9786,399.1047 236.7211,398.8953 234.6260,398.8953 L233.7878,398.8953 L231.9021,405.4032 Z Z M230.8546,408.5464 L227.9080,418.8391 L224.3466,418.8391 L230.8546,395.7393 L236.5117,395.7393 C238.1880,395.7393 239.4582,395.7393 240.2964,395.9487 C240.9251,396.1581 241.5533,396.3675 241.9727,396.7869 C242.6014,397.4156 243.0202,398.0571 243.2296,399.1047 C243.2296,399.9428 243.2296,400.9903 243.0202,402.0379 C242.6014,403.0854 242.1820,404.1463 241.5533,405.1938 C240.7151,406.0320 240.0870,406.8701 239.2488,407.2889 C238.3974,407.7083 237.5592,407.9177 236.7211,408.1271 C235.8835,408.3370 234.6260,408.5464 232.9497,408.5464 L232.3215,408.5464 L230.8546,408.5464 Z"
     style="fill-rule: evenodd; fill: #3e3e3f; "
     id="path19" />
  <path
     d="  M245.3247,409.8034 L251.8332,409.8034 L250.9951,404.5657 C250.7857,404.1463 250.7857,403.7142 250.7857,403.2954 C250.7857,402.8766 250.7857,402.4573 250.7857,401.8285 C250.5763,402.4573 250.1569,402.8760 249.9475,403.2954 C249.7381,403.7142 249.5282,404.1463 249.3188,404.5657 L245.3247,409.8034 Z Z M253.2996,418.8391 L252.2520,412.9593 L243.0202,412.9593 L238.8294,418.8391 L234.8354,418.8391 L252.6714,394.6918 L257.2809,418.8391 L253.2996,418.8391 Z"
     style="fill-rule: evenodd; fill: #3e3e3f; "
     id="path20" />
  <path
     d="  M259.3893,418.8391 L262.3226,408.3370 L258.1324,395.7393 L261.9032,395.7393 L264.6270,403.5048 C264.6270,403.7142 264.8364,403.9369 264.8364,404.3563 C265.0458,404.7750 265.0458,404.9850 265.0458,405.4038 C265.2552,404.9850 265.6746,404.7750 265.8840,404.3563 C266.0934,404.1469 266.3028,403.7148 266.7221,403.5048 L273.8588,395.7393 L277.6435,395.7393 L266.0939,408.3370 L263.1607,418.8391 L259.3893,418.8391 Z"
     style="fill-rule: evenodd; fill: #3e3e3f; "
     id="path21" />
  <path
     d="  M293.7900,407.4989 C293.7900,407.2895 293.7900,406.6607 293.9994,406.0320 C293.9994,405.1938 294.2087,404.7750 294.2087,404.3557 C293.9994,404.7745 293.5800,405.4032 293.3706,405.8226 C292.9518,406.4513 292.7418,406.8701 292.3230,407.4989 L282.6719,419.8872 L280.1574,407.2895 C280.1574,406.6607 279.9480,406.2420 279.9480,405.6132 C279.9480,405.1944 279.9480,404.7750 279.9480,404.3563 C279.7386,404.7750 279.5292,405.1944 279.3193,405.8232 C279.1099,406.2420 278.9005,406.8707 278.4811,407.4995 L272.8107,418.8397 L269.4593,418.8391 L281.6249,394.6918 L284.3488,409.3846 C284.3488,409.5940 284.5581,410.0261 284.5581,410.4454 C284.5581,411.0742 284.7675,411.7024 284.7675,412.5405 C285.1863,411.9118 285.8151,411.0736 286.4566,410.0261 C286.6660,409.5940 286.8754,409.3846 287.0853,409.3846 L297.7840,394.6918 L296.7365,418.8391 L293.1618,418.8391 L293.7900,407.4989 Z"
     style="fill-rule: evenodd; fill: #3e3e3f; "
     id="path22" />
  <path
     d="  M300.2985,418.8391 L306.8070,395.7393 L319.6009,395.7393 L318.7627,398.8953 L309.5303,398.8953 L308.0634,404.7750 L317.0864,404.7750 L316.2482,407.9177 L307.0164,407.9177 L304.9213,415.4738 L314.1399,415.4738 L313.3017,418.8391 L300.2985,418.8391 Z"
     style="fill-rule: evenodd; fill: #3e3e3f; "
     id="path23" />
  <path
     d="  M318.1339,418.8391 L324.8519,394.6918 L335.7600,408.9652 C335.9694,409.3840 336.1788,409.8034 336.5981,410.2355 C336.8075,410.6542 337.0169,411.2830 337.4363,411.7024 L341.8364,395.7393 L345.4112,395.7393 L338.6932,419.6772 L327.5757,405.4032 C327.3663,404.9844 327.1569,404.5657 326.7376,404.1463 C326.5282,403.7142 326.3188,403.2954 326.1088,402.6667 L321.6959,418.8391 L318.1339,418.8391 Z"
     style="fill-rule: evenodd; fill: #3e3e3f; "
     id="path24" />
  <path
     d="  M357.9956,398.8953 L352.3258,418.8391 L348.5544,418.8391 L354.2242,398.8953 L347.9256,398.8953 L348.9732,395.7393 L364.9229,395.7393 L364.0853,398.8953 L357.9956,398.8953 Z"
     style="fill-rule: evenodd; fill: #3e3e3f; "
     id="path25" />
  <path
     d="  M361.9897,414.2162 L365.3423,412.7493 C365.3423,413.7969 365.7611,414.6350 366.3898,415.2638 C366.8086,415.6826 367.8567,416.1152 368.9043,416.1152 C370.1612,416.1152 370.9994,415.6832 371.8508,415.0544 C372.6884,414.4262 373.3172,413.5881 373.5265,412.5405 C373.9459,411.2830 373.1078,410.0261 371.2088,408.9652 C370.9994,408.7558 370.7900,408.7558 370.5800,408.5464 C368.2755,407.2889 367.0186,406.2414 366.3898,405.1938 C365.7611,404.1463 365.7611,402.8760 366.1804,401.4097 C366.5992,399.7334 367.8567,398.0571 369.3231,396.9968 C370.9994,395.7399 372.8978,395.1111 374.9935,395.1111 C376.6698,395.1111 377.9267,395.5299 378.9742,396.1587 C379.8124,396.7874 380.4412,397.8477 380.4412,399.1052 L377.0885,400.5721 C376.8792,399.7340 376.4598,399.3152 376.0410,398.8958 C375.6222,398.6864 374.9935,398.4771 374.3647,398.4771 C373.3172,398.4771 372.4790,398.6864 371.6409,399.1058 C370.9994,399.7346 370.3706,400.3627 370.1612,401.4103 C369.7424,402.6672 370.7900,403.9375 373.1078,405.1950 C373.1078,405.4044 373.3172,405.4044 373.5265,405.4044 C375.4122,406.4519 376.6692,407.4995 377.2979,408.5470 C377.9267,409.5946 377.9267,410.8648 377.5073,412.3317 C376.8792,414.4262 375.8316,416.3246 373.9459,417.5822 C372.2696,418.8391 370.1612,419.4679 367.8567,419.4679 C365.9710,419.4679 364.5041,419.0485 363.4566,418.2103 C362.4090,417.1628 361.9897,415.8926 361.9897,414.2162 Z"
     style="fill-rule: evenodd; fill: #3e3e3f; "
     id="path26" />
  <path
     d="  M412.3406,401.4097 C411.7119,400.3622 410.6643,399.7334 409.6168,399.3146 C408.5559,398.8958 407.2990,398.6859 406.0421,398.6859 C403.5276,398.6859 401.2231,399.3146 399.1147,400.9903 C397.2290,402.6667 395.7621,404.7750 395.1340,407.2889 C394.2958,409.8034 394.5052,411.9118 395.7627,413.5875 C396.8103,415.2638 398.4866,415.8920 400.8044,415.8920 C402.2713,415.8920 403.5282,415.6826 404.9945,415.2632 C406.2515,414.8444 407.7184,414.0063 409.1847,413.1681 L407.9278,417.3716 C406.6708,418.0004 405.4133,418.6285 404.1564,419.0479 C402.8994,419.2573 401.6419,419.4667 400.1756,419.4667 C398.4866,419.4667 396.8103,419.2573 395.5527,418.6285 C394.0858,417.9998 393.0383,417.1616 392.2001,416.1141 C391.3620,414.8438 390.9432,413.5869 390.7332,412.1200 C390.5238,410.6531 390.7332,408.9641 391.1520,407.2878 C391.5708,405.6115 392.4090,403.9352 393.4565,402.4555 C394.5040,400.9886 395.7610,399.7317 397.2279,398.6841 C398.4848,397.4139 400.1744,396.5757 401.8507,395.9470 C403.5270,395.5282 405.2033,395.1088 406.8791,395.1088 C408.1360,395.1088 409.4062,395.3182 410.6638,395.7376 C411.7113,396.1564 412.7589,396.7851 413.8064,397.4139 L412.3406,401.4097 Z"
     style="fill-rule: evenodd; fill: #3e3e3f; "
     id="path27" />
  <path
     d="  M435.2050,407.2889 C435.6238,406.2414 435.6238,404.9844 435.6238,403.9363 C435.4144,402.8755 434.9950,402.0373 434.5762,401.1992 C433.9475,400.3610 433.3193,399.7323 432.2718,399.3135 C431.4336,398.8947 430.3861,398.6847 429.3385,398.6847 C428.0683,398.6847 427.0207,398.8941 425.7638,399.3135 C424.7162,399.7323 423.6687,400.3610 422.6212,401.1992 C421.5736,402.0373 420.7355,402.8755 419.8973,403.9363 C419.2686,404.9839 418.6271,406.2408 418.4177,407.2889 C417.9989,408.5459 417.9989,409.5934 417.9989,410.6542 C418.2083,411.7018 418.6276,412.5399 419.0597,413.3781 C419.6885,414.2162 420.5266,414.8450 421.3642,415.2638 C422.2024,415.6826 423.2499,415.8926 424.5069,415.8926 C425.5544,415.8926 426.6019,415.6832 427.8595,415.2638 C428.9192,414.8450 429.9667,414.2168 431.0148,413.3787 C432.0624,412.5405 432.9005,411.7024 433.7381,410.6548 C434.3668,409.5940 434.9956,408.5464 435.2050,407.2889 Z Z M439.1991,407.2889 C438.7803,408.9652 437.9421,410.4449 436.8813,411.9118 C436.0431,413.3787 434.7862,414.8450 433.1099,415.8926 C431.6430,417.1628 430.1767,418.0009 428.5004,418.6297 C426.8108,419.2585 425.1350,419.4679 423.4587,419.4679 C421.7824,419.4679 420.3161,419.2585 418.8492,418.6297 C417.5789,418.0009 416.5314,417.1628 415.6932,415.8926 C414.8551,414.8450 414.2263,413.3781 414.0169,412.1212 C413.8076,410.6542 414.0169,408.9652 414.4357,407.2889 C414.8545,405.6126 415.6927,404.1463 416.7402,402.6661 C417.5784,401.1992 418.8486,399.9422 420.5249,398.6853 C421.9918,397.6244 423.4582,396.5769 425.1345,396.1581 C426.8108,395.5293 428.4998,395.1106 430.1761,395.1106 C431.8524,395.1106 433.3187,395.5293 434.7856,396.1581 C436.0426,396.5769 437.0901,397.6250 437.9416,398.6853 C438.7797,399.9422 439.4085,401.1997 439.6179,402.6661 C439.8273,404.1457 439.6179,405.6126 439.1991,407.2889 Z"
     style="fill-rule: evenodd; fill: #3e3e3f; "
     id="path28" />
  <path
     d="  M447.8027,405.6132 L448.4309,405.6132 C450.5266,405.6132 451.7835,405.4032 452.6217,404.9844 C453.4598,404.3557 453.8786,403.5048 454.2980,402.4573 C454.7167,401.1997 454.5073,400.1522 454.0886,399.7334 C453.4598,399.1047 452.2023,398.8953 450.3166,398.8953 L449.6884,398.8953 L447.8027,405.6132 Z Z M446.7419,408.5464 L443.8086,418.8391 L440.2466,418.8391 L446.7419,395.7393 L451.9929,395.7393 C453.4598,395.7393 454.7167,395.7393 455.5549,395.9487 C456.3930,396.1581 457.0345,396.5775 457.4539,396.9963 C458.0827,397.6250 458.2920,398.2665 458.5014,399.1047 C458.7108,399.9428 458.5014,400.9903 458.2920,402.0379 C457.6633,403.9369 456.8251,405.4032 455.7643,406.4513 C454.5073,407.4989 453.0404,408.1271 451.1547,408.3370 L456.1837,418.8391 L451.9929,418.8391 L447.1607,408.5464 L446.7419,408.5464 Z"
     style="fill-rule: evenodd; fill: #3e3e3f; "
     id="path29" />
  <path
     d="  M466.6857,405.4032 L467.5239,405.4032 C469.6189,405.4032 471.0859,405.1938 471.9240,404.7750 C472.7622,404.3557 473.3903,403.5048 473.6003,402.2473 C474.0191,400.9903 473.8097,400.1522 473.3903,399.7334 C472.7622,399.1047 471.2952,398.8953 469.4096,398.8953 L468.3620,398.8953 L466.6857,405.4032 Z Z M465.6249,408.5464 L462.6916,418.8391 L459.1296,418.8391 L465.6249,395.7393 L471.2952,395.7393 C472.9715,395.7393 474.2285,395.7393 474.8572,395.9487 C475.7087,396.1581 476.3369,396.3675 476.7562,396.7869 C477.3850,397.4156 477.5944,398.0571 477.8038,399.1047 C478.0132,399.9428 478.0132,400.9903 477.5944,402.0379 C477.3850,403.0854 476.7562,404.1463 476.1275,405.1938 C475.4860,406.0320 474.6479,406.8701 473.8097,407.2889 C473.1809,407.7083 472.3428,407.9177 471.5046,408.1271 C470.6665,408.3370 469.4096,408.5464 467.7332,408.5464 L466.8951,408.5464 L465.6249,408.5464 Z"
     style="fill-rule: evenodd; fill: #3e3e3f; "
     id="path30" />
  <path
     d="  M499.4106,407.2889 C499.8294,406.2414 499.8294,404.9844 499.6200,403.9363 C499.6200,402.8755 499.2012,402.0373 498.5725,401.1992 C498.1537,400.3610 497.3155,399.7323 496.4774,399.3135 C495.6392,398.8947 494.5784,398.6847 493.3214,398.6847 C492.2739,398.6847 491.0170,398.8941 489.9688,399.3135 C488.7119,399.7323 487.6644,400.3610 486.6162,401.1992 C485.5687,402.0373 484.7172,402.8755 484.0891,403.9363 C483.2509,404.9839 482.8321,406.2408 482.4128,407.2889 C482.2034,408.5459 481.9940,409.5934 482.2034,410.6542 C482.4128,411.7018 482.6221,412.5399 483.2509,413.3781 C483.8797,414.2162 484.5078,414.8450 485.5687,415.2638 C486.4068,415.6826 487.4544,415.8926 488.5019,415.8926 C489.7589,415.8926 490.8064,415.6832 492.0639,415.2638 C493.1115,414.8450 494.1590,414.2162 495.2199,413.3781 C496.2680,412.5405 497.1061,411.7024 497.9437,410.6548 C498.5725,409.5940 499.2012,408.5464 499.4106,407.2889 Z Z M503.3914,407.2889 C502.9726,408.9652 502.1345,410.4449 501.0869,411.9118 C500.0394,413.3787 498.7819,414.8450 497.3155,415.8926 C495.8486,417.1628 494.1596,418.0009 492.4833,418.6297 C490.8070,419.2585 489.3407,419.4679 487.6644,419.4679 C485.9881,419.4679 484.5084,419.2585 483.0415,418.6297 C481.7846,418.0009 480.7370,417.1628 479.8989,415.8926 C478.8513,414.8450 478.4320,413.3781 478.2226,412.1212 C478.0132,410.6542 478.0132,408.9652 478.6414,407.2889 C479.0601,405.6126 479.6889,404.1463 480.7365,402.6661 C481.7840,401.1992 483.0409,399.9422 484.5078,398.6853 C485.9875,397.6244 487.6638,396.5769 489.3401,396.1581 C491.0164,395.5293 492.6927,395.1106 494.3684,395.1106 C496.0574,395.1106 497.5244,395.5293 498.7813,396.1581 C500.2482,396.5769 501.2957,397.6250 502.1339,398.6853 C502.9720,399.9422 503.6008,401.1997 503.8102,402.6661 C504.0196,404.1457 503.8102,405.6126 503.3914,407.2889 Z"
     style="fill-rule: evenodd; fill: #3e3e3f; "
     id="path31" />
  <path
     d="  M510.5287,405.6132 L511.3663,405.6132 C513.2520,405.6132 514.7322,405.4032 515.5703,404.9844 C516.1985,404.3557 516.8273,403.5048 517.2461,402.4573 C517.4560,401.1997 517.4560,400.1522 516.8273,399.7334 C516.1985,399.1047 515.1510,398.8953 513.2520,398.8953 L512.4144,398.8953 L510.5287,405.6132 Z Z M509.4806,408.5464 L506.7567,418.8391 L503.1820,418.8391 L509.6906,395.7393 L514.9416,395.7393 C516.4085,395.7393 517.6654,395.7393 518.2942,395.9487 C519.1323,396.1581 519.7611,396.5775 520.1799,396.9963 C520.8086,397.6250 521.2274,398.2665 521.2274,399.1047 C521.4368,399.9428 521.4368,400.9903 521.0180,402.0379 C520.5987,403.9369 519.7605,405.4032 518.5036,406.4513 C517.4560,407.4989 515.7797,408.1271 514.1034,408.3370 L519.1318,418.8391 L514.9416,418.8391 L510.1093,408.5464 L509.4806,408.5464 Z"
     style="fill-rule: evenodd; fill: #3e3e3f; "
     id="path32" />
  <path
     d="  M530.0405,409.8034 L536.5484,409.8034 L535.5009,404.5651 C535.5009,404.1463 535.5009,403.7136 535.5009,403.2948 C535.5009,402.8760 535.5009,402.4567 535.5009,401.8279 C535.2915,402.4567 534.8721,402.8755 534.6627,403.2948 C534.4533,403.7142 534.2439,404.1463 533.8246,404.5657 L530.0405,409.8034 Z Z M538.0153,418.8391 L536.9678,412.9593 L527.7354,412.9593 L523.5452,418.8391 L519.5511,418.8391 L537.3866,394.6918 L541.9961,418.8391 L538.0153,418.8391 Z"
     style="fill-rule: evenodd; fill: #3e3e3f; "
     id="path33" />
  <path
     d="  M553.3363,398.8953 L547.8759,418.8391 L544.1045,418.8391 L549.5649,398.8953 L543.4757,398.8953 L544.3139,395.7393 L560.4736,395.7393 L559.4261,398.8953 L553.3363,398.8953 Z"
     style="fill-rule: evenodd; fill: #3e3e3f; "
     id="path34" />
  <path
     d="  M557.5271,418.8391 L564.0356,395.7393 L567.8070,395.7393 L561.3118,418.8391 L557.5271,418.8391 Z"
     style="fill-rule: evenodd; fill: #3e3e3f; "
     id="path35" />
  <path
     d="  M588.5757,407.2889 C588.7851,406.2414 588.9951,404.9844 588.7851,403.9369 C588.5757,402.8760 588.3663,402.0379 587.7375,401.1997 C587.1088,400.3616 586.4806,399.7328 585.6425,399.3140 C584.5949,398.8953 583.5474,398.6853 582.4998,398.6853 C581.2429,398.6853 580.1953,398.8947 579.1345,399.3140 C577.8776,399.7328 576.8300,400.3616 575.7819,401.1997 C574.7343,402.0379 573.8962,402.8760 573.0580,403.9369 C572.4293,404.9844 572.0105,406.2414 571.5911,407.2895 C571.1723,408.5464 571.1723,409.5940 571.3817,410.6548 C571.3817,411.7024 571.8005,412.5405 572.4293,413.3787 C572.8481,414.2168 573.6862,414.8456 574.5244,415.2644 C575.5719,415.6832 576.4101,415.8931 577.6670,415.8931 C578.7145,415.8931 579.9715,415.6837 581.0323,415.2644 C582.2898,414.8450 583.3380,414.2168 584.3855,413.3787 C585.4331,412.5405 586.2712,411.7024 586.8994,410.6548 C587.7375,409.5940 588.1569,408.5464 588.5757,407.2889 Z Z M592.3604,407.2889 C591.9410,408.9652 591.3128,410.4449 590.2653,411.9118 C589.2045,413.3787 587.9469,414.8450 586.4806,415.8926 C584.8043,417.1628 583.3380,418.0009 581.6617,418.6297 C579.9721,419.2585 578.2963,419.4679 576.6200,419.4679 C574.9437,419.4679 573.4774,419.2585 572.2199,418.6297 C570.7530,418.0009 569.6927,417.1628 568.8546,415.8926 C568.0164,414.8450 567.3876,413.3781 567.1783,412.1212 C566.9689,410.6542 567.1783,408.9652 567.5970,407.2889 C568.0158,405.6126 568.8540,404.1463 569.9015,402.6661 C570.9624,401.1992 572.2193,399.9422 573.6862,398.6853 C575.1531,397.6244 576.8288,396.5769 578.5052,396.1581 C580.1942,395.5293 581.6611,395.1106 583.3374,395.1106 C585.0137,395.1106 586.6900,395.5293 587.9469,396.1581 C589.2039,396.5769 590.2647,397.6250 591.3123,398.6853 C592.1504,399.9422 592.5692,401.1997 592.7792,402.6661 C592.9891,404.1463 592.9891,405.6132 592.3604,407.2889 Z"
     style="fill-rule: evenodd; fill: #3e3e3f; "
     id="path36" />
  <path
     d="  M592.3604,418.8391 L598.8556,394.6918 L609.7770,408.9652 C609.9864,409.3840 610.4058,409.8034 610.6152,410.2355 C610.8246,410.6542 611.2440,411.2830 611.4533,411.7024 L615.8535,395.7393 L619.4282,395.7393 L612.7103,419.6772 L601.8016,405.4032 C601.3828,404.9844 601.1734,404.5657 600.9640,404.1463 C600.5447,403.7142 600.3353,403.2954 600.1259,402.6667 L595.7124,418.8391 L592.3604,418.8391 Z"
     style="fill-rule: evenodd; fill: #3e3e3f; "
     id="path37" />
  <path
     d="  M648.5911,407.2889 C648.8005,406.2414 649.0099,404.9844 648.8005,403.9369 C648.5911,402.8760 648.3812,402.0379 647.7530,401.1997 C647.1242,400.3616 646.4955,399.7334 645.6446,399.3140 C644.5971,398.8953 643.5495,398.6853 642.5020,398.6853 C641.4544,398.6853 640.1975,398.8947 639.1494,399.3140 C637.8924,399.7328 636.8316,400.3616 635.7840,401.1997 C634.7365,402.0379 633.8983,402.8760 633.2696,403.9369 C632.4314,404.9844 632.0126,406.2414 631.5933,407.2895 C631.3839,408.5464 631.1745,409.5940 631.3839,410.6548 C631.3839,411.7024 631.8027,412.5405 632.4314,413.3787 C632.8502,414.2168 633.6884,414.8456 634.5265,415.2644 C635.5741,415.6832 636.4122,415.8931 637.6825,415.8931 C638.7300,415.8931 639.9869,415.6837 641.0351,415.2644 C642.2920,414.8456 643.3395,414.2168 644.3877,413.3787 C645.4352,412.5405 646.2734,411.7024 646.9148,410.6548 C647.7530,409.5940 648.1718,408.5464 648.5911,407.2889 Z Z M652.3625,407.2889 C651.9432,408.9652 651.3150,410.4449 650.2669,411.9118 C649.2193,413.3787 647.9624,414.8450 646.4955,415.8926 C645.0158,417.1628 643.3395,418.0009 641.6638,418.6297 C639.9875,419.2585 638.3112,419.4679 636.6222,419.4679 C634.9459,419.4679 633.4790,419.2585 632.2220,418.6297 C630.7551,418.0009 629.7076,417.1628 628.8694,415.8926 C628.0313,414.8450 627.6125,413.3787 627.3898,412.1212 C627.1804,410.6548 627.1804,408.9652 627.6125,407.2889 C628.2412,405.6126 628.8694,404.1463 629.9170,402.6661 C630.9645,401.1992 632.2215,399.9422 633.6884,398.6853 C635.1553,397.6244 636.8310,396.5769 638.5206,396.1581 C640.1969,395.5293 641.8732,395.1106 643.5489,395.1106 C645.0158,395.1106 646.7049,395.5293 647.9618,396.1581 C649.2187,396.5769 650.2663,397.6250 651.3144,398.6853 C652.1526,399.9422 652.5714,401.1997 652.7813,402.6661 C652.9907,404.1463 652.9907,405.6132 652.3625,407.2889 Z"
     style="fill-rule: evenodd; fill: #3e3e3f; "
     id="path38" />
  <path
     d="  M652.3625,418.8391 L658.6611,395.7393 L671.6649,395.7393 L670.8267,398.8953 L661.5943,398.8953 L659.9180,404.7750 L669.1504,404.7750 L668.3123,407.9177 L659.0805,407.9177 L656.1467,418.8391 L652.3625,418.8391 Z"
     style="fill-rule: evenodd; fill: #3e3e3f; "
     id="path39" />
  <path
     d="  M679.2204,418.8391 L685.5190,395.7393 L689.2909,395.7393 L682.9924,418.8391 L679.2204,418.8391 Z"
     style="fill-rule: evenodd; fill: #3e3e3f; "
     id="path40" />
  <path
     d="  M686.3577,418.8391 L693.0623,394.6918 L703.7744,408.9652 C704.1931,409.3840 704.4031,409.8034 704.8219,410.2355 C705.0313,410.6542 705.2407,411.2830 705.6600,411.7024 L710.0602,395.7393 L713.6349,395.7393 L706.9170,419.6772 L695.7989,405.4032 C695.5895,404.9844 695.1707,404.5657 694.9608,404.1463 C694.7514,403.7142 694.5420,403.2954 694.3326,402.6667 L689.9191,418.8391 L686.3577,418.8391 Z"
     style="fill-rule: evenodd; fill: #3e3e3f; "
     id="path41" />
  <path
     d="  M715.9394,415.4738 L719.0826,415.4738 C720.7589,415.4738 722.0159,415.2644 723.0767,415.0550 C723.9149,414.8456 724.7530,414.4262 725.5912,414.0074 C726.6387,413.1693 727.6862,412.3311 728.3150,411.0742 C729.1532,410.0266 729.7819,408.7564 729.9913,407.2895 C730.4101,405.8226 730.6201,404.5657 730.4101,403.2954 C730.4101,402.2479 729.9913,401.4097 729.3626,400.5716 C728.7338,399.9428 728.1056,399.7334 727.2675,399.3146 C726.4287,399.1047 724.9624,399.1047 723.0761,399.1047 L721.8059,399.1047 L720.3396,399.1047 L715.9394,415.4738 Z Z M711.1072,418.8391 L717.6157,395.7393 L722.6573,395.7393 C726.0099,395.7393 728.3144,395.9487 729.5714,396.1581 C730.6189,396.5769 731.6665,396.9963 732.5179,397.8471 C733.5655,398.8947 734.1942,400.1516 734.4036,401.8279 C734.8224,403.5042 734.6130,405.1933 733.9848,407.2883 C733.3561,409.3834 732.5179,411.2824 731.4576,412.7488 C730.4095,414.4262 728.9432,415.6832 727.2669,416.7440 C726.0099,417.5822 724.7524,418.0009 723.4955,418.4203 C722.0159,418.6297 719.9202,418.8391 717.1969,418.8391 L716.1488,418.8391 L711.1072,418.8391 Z"
     style="fill-rule: evenodd; fill: #3e3e3f; "
     id="path42" />
  <path
     d="  M733.1467,418.8391 L739.6419,395.7393 L743.4260,395.7393 L736.9175,418.8391 L733.1467,418.8391 Z"
     style="fill-rule: evenodd; fill: #3e3e3f; "
     id="path43" />
  <path
     d="  M749.9213,409.8034 L756.4165,409.8034 L755.3690,404.5651 C755.3690,404.1463 755.3690,403.7136 755.3690,403.2948 C755.3690,402.8760 755.3690,402.4567 755.3690,401.8279 C754.9502,402.4567 754.7402,402.8755 754.5308,403.2948 C754.1120,403.7142 753.9026,404.1463 753.6927,404.5657 L749.9213,409.8034 Z Z M757.6740,418.8391 L756.8359,412.9593 L747.6035,412.9593 L743.2039,418.8391 L739.2098,418.8391 L757.2547,394.6918 L761.6681,418.8391 L757.6740,418.8391 Z"
     style="fill-rule: evenodd; fill: #3e3e3f; "
     id="path44" />
</svg>
